<?xml version="1.0" encoding="utf-8"?>
<!-- Generator: Adobe Illustrator 26.3.1, SVG Export Plug-In . SVG Version: 6.00 Build 0)  -->
<svg version="1.1" id="Layer_1" xmlns="http://www.w3.org/2000/svg" xmlns:xlink="http://www.w3.org/1999/xlink" x="0px" y="0px"
	 viewBox="0 0 26.4 26.4" style="enable-background:new 0 0 26.4 26.4;" xml:space="preserve">
<style type="text/css">
	.st0{fill:#FFB000;}
	.st1{fill:#FFFFFF;}
</style>
<g>
	
		<ellipse id="XMLID_00000017485646277268306880000018246092153593169817_" transform="matrix(0.8544 -0.5196 0.5196 0.8544 -4.9377 8.7821)" class="st0" cx="13.2" cy="13.2" rx="13.2" ry="13.2"/>
	<path id="XMLID_00000018205935389390434170000005207633078604669078_" class="st1" d="M19.1,8.6c-0.5,0.3-1,0.5-1.6,0.6
		c-0.5-0.5-1.1-0.8-1.9-0.8c-1.7,0-2.9,1.5-2.5,3.2c-2.1-0.1-4-1.1-5.3-2.7c-0.7,1.2-0.3,2.7,0.8,3.4c-0.4,0-0.8-0.1-1.2-0.3
		c0,1.2,0.8,2.3,2.1,2.5c-0.4,0.1-0.8,0.1-1.2,0c0.3,1,1.3,1.8,2.4,1.8c-1.1,0.8-2.4,1.2-3.8,1.1c1.1,0.7,2.5,1.2,3.9,1.2
		c4.8,0,7.5-4,7.3-7.6c0.5-0.4,0.9-0.8,1.3-1.3C19,9.8,18.5,9.9,18,10C18.5,9.7,18.9,9.2,19.1,8.6z"/>
</g>
</svg>
