<?xml version="1.0" encoding="utf-8"?>
<!-- Generator: Adobe Illustrator 26.3.1, SVG Export Plug-In . SVG Version: 6.00 Build 0)  -->
<svg version="1.1" id="Layer_1" xmlns="http://www.w3.org/2000/svg" xmlns:xlink="http://www.w3.org/1999/xlink" x="0px" y="0px"
	 viewBox="0 0 18.3 18.3" style="enable-background:new 0 0 18.3 18.3;" xml:space="preserve">
<style type="text/css">
	.st0{fill:#FF0B53;}
	.st1{fill:#FFFFFF;}
</style>
<g>
	<path class="st0" d="M18.3,15.2c0,1.7-1.4,3.1-3.1,3.1H3.1c-1.7,0-3.1-1.4-3.1-3.1V3.1C0,1.4,1.4,0,3.1,0h12.1
		c1.7,0,3.1,1.4,3.1,3.1V15.2z"/>
	<g>
		<g>
			<path class="st1" d="M12.1,16.4H6.2c-2.6,0-4.7-2.1-4.7-4.7V6.6c0-2.6,2.1-4.7,4.7-4.7h5.8c2.6,0,4.7,2.1,4.7,4.7v5.1
				C16.8,14.3,14.7,16.4,12.1,16.4z M6.2,2.9c-2,0-3.7,1.6-3.7,3.7v5.1c0,2,1.6,3.7,3.7,3.7h5.8c2,0,3.7-1.6,3.7-3.7V6.6
				c0-2-1.6-3.7-3.7-3.7H6.2z"/>
		</g>
		<g>
			<path class="st1" d="M9.2,13.3C6.9,13.3,5,11.5,5,9.2C5,6.9,6.9,5,9.2,5c2.3,0,4.2,1.9,4.2,4.2C13.3,11.5,11.5,13.3,9.2,13.3z
				 M9.2,6C7.4,6,6,7.4,6,9.2c0,1.7,1.4,3.1,3.1,3.1c1.7,0,3.1-1.4,3.1-3.1C12.3,7.4,10.9,6,9.2,6z"/>
		</g>
		<g>
			<path class="st1" d="M14.2,5.1c0,0.5-0.4,0.9-0.9,0.9c-0.5,0-0.9-0.4-0.9-0.9c0-0.5,0.4-0.9,0.9-0.9C13.8,4.2,14.2,4.6,14.2,5.1z
				"/>
		</g>
	</g>
</g>
</svg>
