<?xml version="1.0" encoding="utf-8"?>
<!-- Generator: Adobe Illustrator 26.3.1, SVG Export Plug-In . SVG Version: 6.00 Build 0)  -->
<svg version="1.1" id="Layer_1" xmlns="http://www.w3.org/2000/svg" xmlns:xlink="http://www.w3.org/1999/xlink" x="0px" y="0px"
	 viewBox="0 0 18.3 18.3" style="enable-background:new 0 0 18.3 18.3;" xml:space="preserve">
<style type="text/css">
	.st0{fill:#FF0B53;}
	.st1{fill:#FFFFFF;}
</style>
<g>
	<path class="st0" d="M18.3,15.2c0,1.7-1.4,3.1-3.1,3.1H3.1c-1.7,0-3.1-1.4-3.1-3.1V3.1C0,1.4,1.4,0,3.1,0h12.1
		c1.7,0,3.1,1.4,3.1,3.1V15.2z"/>
	<path class="st1" d="M12.6,18.3v-7h2.4l0.4-2.7h-2.7V6.8c0-0.8,0.2-1.3,1.4-1.3l1.5,0V3c-0.3,0-1.1-0.1-2.1-0.1
		c-2.1,0-3.5,1.3-3.5,3.6v2H7.4v2.7h2.4v7H12.6L12.6,18.3z"/>
</g>
</svg>
