<?xml version="1.0" encoding="utf-8"?>
<!-- Generator: Adobe Illustrator 26.3.1, SVG Export Plug-In . SVG Version: 6.00 Build 0)  -->
<svg version="1.1" id="Layer_1" xmlns="http://www.w3.org/2000/svg" xmlns:xlink="http://www.w3.org/1999/xlink" x="0px" y="0px"
	 viewBox="0 0 18.3 18.3" style="enable-background:new 0 0 18.3 18.3;" xml:space="preserve">
<style type="text/css">
	.st0{fill:#FF0B53;}
	.st1{fill:#FFFFFF;}
</style>
<g>
	<g>
		<path class="st0" d="M18.3,15.2c0,1.7-1.4,3.1-3.1,3.1H3.1c-1.7,0-3.1-1.4-3.1-3.1V3.1C0,1.4,1.4,0,3.1,0h12.1
			c1.7,0,3.1,1.4,3.1,3.1V15.2z"/>
	</g>
	<g>
		<polygon class="st1" points="15.6,4.1 15.6,4.1 15.6,4.1 		"/>
		<path class="st1" d="M15.1,5.4c-0.3,0.1-0.5,0.1-0.5,0.1l0-0.1c0.3-0.2,0.9-0.8,1-1.1c0-0.1,0-0.2,0-0.2l-0.8,0.4L14,4.8l0,0
			C13.6,4.3,12.8,4,12,4c-1.5,0-2.6,1-2.6,2.3c0,0.2,0,0.7,0.1,0.9c0,0.1,0-0.1,0,0c-0.9,0-2.1-0.4-3.2-0.9C4.2,5.1,4.1,4.4,4.1,4.4
			C3.7,4.7,3.6,5.9,3.9,6.8c0.2,0.6,1,1.1,1,1.1l0,0c0,0-0.3,0-0.7-0.1C3.8,7.7,3.7,7.6,3.7,7.6C3.5,8.1,3.9,9,4.6,9.6
			C5,10,5.8,10.2,5.8,10.2l-1.2,0C4.5,11.4,7,12.1,7,12.1l0,0C6.3,12.6,5.4,13,4.5,13c-0.5,0-0.9-0.1-1.4-0.2c1.2,1,2.7,1.7,4.4,1.6
			c4.4-0.2,6.9-4,7-7.8l0,0c0,0,0.2-0.1,0.7-0.5c0.4-0.4,0.7-1,0.7-1S15.4,5.4,15.1,5.4z"/>
		<path class="st1" d="M15.6,4.1C15.6,4.2,15.6,4.1,15.6,4.1L15.6,4.1z"/>
	</g>
</g>
</svg>
